<svg xmlns="http://www.w3.org/2000/svg" width="20" height="20" fill="none" viewBox="0 0 20 20"><path fill="#E81C00" d="M10.833 7.5a.833.833 0 1 1-1.667 0 .833.833 0 0 1 1.667 0ZM10 9.792c.345 0 .625.28.625.625v4.166a.625.625 0 0 1-1.25 0v-4.166c0-.346.28-.625.625-.625Z"/><path fill="#E81C00" fill-rule="evenodd" d="M11.892 3.327a2.292 2.292 0 0 0-3.784 0l-.36.527a63.287 63.287 0 0 0-5.787 10.47l-.075.172a2.093 2.093 0 0 0 1.687 2.914 57.86 57.86 0 0 0 12.854 0 2.093 2.093 0 0 0 1.686-2.914l-.075-.173a63.286 63.286 0 0 0-5.786-10.47l-.36-.526Zm-2.752.705a1.042 1.042 0 0 1 1.72 0l.36.527a62.036 62.036 0 0 1 5.672 10.263l.075.173a.843.843 0 0 1-.68 1.173 56.61 56.61 0 0 1-12.575 0 .843.843 0 0 1-.68-1.173l.076-.173A62.04 62.04 0 0 1 8.78 4.559l.36-.527Z" clip-rule="evenodd"/></svg>