<?xml version="1.0" standalone="no"?>
<!DOCTYPE svg PUBLIC "-//W3C//DTD SVG 20010904//EN"
 "http://www.w3.org/TR/2001/REC-SVG-20010904/DTD/svg10.dtd">
<svg version="1.0" xmlns="http://www.w3.org/2000/svg"
 width="816.000000pt" height="816.000000pt" viewBox="0 0 816.000000 816.000000"
 preserveAspectRatio="xMidYMid meet">
<metadata>
Created by potrace 1.14, written by Peter Selinger 2001-2017
</metadata>
<g transform="translate(0.000000,816.000000) scale(0.100000,-0.100000)"
fill="#000000" stroke="none">
<path d="M4280 7224 c-1049 -603 -1300 -748 -2215 -1277 -555 -320 -1026 -595
-1086 -632 -34 -22 -37 -26 -29 -57 8 -35 61 -234 87 -328 9 -30 18 -65 20
-77 6 -26 17 -28 94 -10 37 9 137 59 300 152 134 76 309 175 389 221 80 45
252 142 382 217 130 74 239 132 242 129 3 -3 6 -138 6 -301 l0 -296 -218 -122
c-204 -114 -614 -340 -908 -501 l-132 -72 23 -82 c12 -46 42 -155 65 -243 23
-88 45 -170 48 -182 7 -24 1 -27 417 196 462 249 697 372 701 368 3 -2 2 -120
-2 -260 l-7 -256 -381 -217 c-210 -120 -428 -245 -486 -278 l-106 -60 38 -141
c21 -77 54 -198 72 -268 19 -71 36 -131 39 -134 5 -4 97 48 670 377 101 58
182 99 187 94 8 -9 67 -161 137 -358 30 -82 33 -100 22 -111 -8 -7 -207 -129
-444 -270 -236 -141 -431 -258 -433 -259 -1 -2 2 -16 7 -32 5 -16 35 -126 66
-244 32 -118 60 -219 62 -223 6 -10 -30 -31 715 415 339 202 619 368 621 368
7 0 500 -280 510 -289 5 -5 -16 -23 -45 -42 -498 -316 -1082 -700 -1114 -730
-80 -78 -108 -174 -80 -270 33 -113 126 -179 250 -179 100 1 141 20 436 210
140 90 436 280 658 422 375 241 404 258 425 246 85 -47 416 -265 414 -272 -5
-14 -449 -322 -839 -582 -185 -123 -349 -239 -364 -257 -89 -105 -98 -253 -21
-335 75 -81 225 -91 366 -25 38 18 209 122 2694 1633 l1586 965 1 1611 0 1611
-577 339 c-1864 1090 -2213 1294 -2220 1294 -5 0 -474 -268 -1043 -596z"/>
</g>
</svg>
